# xmcd
#
# Track frame offsets:
#	150
#	12887
#	28357
#	42822
#	58782
#	74114
#	91742
#	108557
#	124264
#	138874
#	154341
#	169783
#	192160
#	205470
#	218480
#	233702
#	250862
#	271811
#	287741
#
# Disc length: 4041 seconds
#
# Revision: 0
# Processed by: cddbd v1.4PL0 Copyright (c) Steve Scherf et al.
# Submitted via: dBpowerAMP V4.0
#
DISCID=180fc713
DTITLE=amado batista - especial so sucessos
DYEAR=2002
DGENRE=sertanejo
TTITLE0=o pobretao
TTITLE1=ta com raiva de mim
TTITLE2=quem e voce
TTITLE3=estou so
TTITLE4=eu e voce
TTITLE5=estrela dos meus sonhos
TTITLE6=agarra agarra
TTITLE7=tanto amor
TTITLE8=queria lhe dizer cantando
TTITLE9=24 horas no ar
TTITLE10=eu gosto dela
TTITLE11=romance no deserto
TTITLE12=voce mudou demais
TTITLE13=ainda te espero
TTITLE14=hospicio
TTITLE15=esouta
TTITLE16=separacao
TTITLE17=quarto negro
TTITLE18=um pedaco de mim
EXTD=amado batista especial - só sucessos
EXTT0=
EXTT1=
EXTT2=
EXTT3=
EXTT4=
EXTT5=
EXTT6=
EXTT7=
EXTT8=
EXTT9=
EXTT10=
EXTT11=
EXTT12=
EXTT13=
EXTT14=
EXTT15=
EXTT16=
EXTT17=
EXTT18=
PLAYORDER=
